<svg xmlns="http://www.w3.org/2000/svg" width="92.044" height="117.816" viewBox="0 0 92.044 117.816">
  <g id="to-do-list" transform="translate(-56)">
    <path id="Caminho_54" data-name="Caminho 54" d="M122.017,166.21l10.758-12.942a1.726,1.726,0,1,0-2.655-2.206L120.9,162.156l-2.016-3.274a1.726,1.726,0,0,0-2.939,1.809l3.276,5.321A1.726,1.726,0,0,0,122.017,166.21Z" transform="translate(-45.953 -115.822)" fill="#052643"/>
    <path id="Caminho_55" data-name="Caminho 55" d="M115.946,259.69l3.276,5.321a1.726,1.726,0,0,0,2.8.2l10.758-12.942a1.726,1.726,0,1,0-2.655-2.206L120.9,261.154l-2.016-3.274a1.726,1.726,0,1,0-2.939,1.81Z" transform="translate(-45.954 -192.04)" fill="#052643"/>
    <path id="Caminho_56" data-name="Caminho 56" d="M115.946,359.357l3.276,5.321a1.726,1.726,0,0,0,2.8.2l10.758-12.942a1.726,1.726,0,0,0-2.655-2.206L120.9,360.821l-2.016-3.274a1.726,1.726,0,1,0-2.939,1.81Z" transform="translate(-45.954 -268.773)" fill="#052643"/>
    <path id="Caminho_57" data-name="Caminho 57" d="M146.318,212.381a1.726,1.726,0,0,0-1.726,1.726v12.563a2.649,2.649,0,0,1-2.646,2.646H62.1a2.649,2.649,0,0,1-2.646-2.646V151.035a1.726,1.726,0,0,0-3.452,0v75.635a6.1,6.1,0,0,0,6.1,6.1h79.848a6.1,6.1,0,0,0,6.1-6.1V214.107A1.726,1.726,0,0,0,146.318,212.381Z" transform="translate(0 -114.952)" fill="#052643"/>
    <path id="Caminho_58" data-name="Caminho 58" d="M141.946,13.3H133.5V6.167a6.167,6.167,0,1,0-12.334,0V13.3H108.189V6.167a6.167,6.167,0,1,0-12.334,0V13.3H82.874V6.167a6.167,6.167,0,0,0-12.334,0V13.3H62.1A6.1,6.1,0,0,0,56,19.4v8.633a1.726,1.726,0,1,0,3.452,0V19.4A2.649,2.649,0,0,1,62.1,16.75H70.54v2.74a6.167,6.167,0,0,0,12.334,0V16.75H95.855v2.74a6.167,6.167,0,1,0,12.334,0V16.75H121.17v2.74a6.167,6.167,0,1,0,12.334,0V16.75h8.442a2.649,2.649,0,0,1,2.646,2.646V91.1a1.726,1.726,0,1,0,3.452,0V19.4a6.1,6.1,0,0,0-6.1-6.1ZM79.422,19.49a2.715,2.715,0,0,1-5.431,0V6.167a2.715,2.715,0,0,1,5.431,0Zm25.315,0a2.715,2.715,0,1,1-5.431,0V6.167a2.715,2.715,0,1,1,5.431,0Zm25.315,0a2.715,2.715,0,1,1-5.431,0V6.167a2.715,2.715,0,1,1,5.431,0Z" transform="translate(0)" fill="#052643"/>
    <path id="Caminho_59" data-name="Caminho 59" d="M203.647,189H240a5.408,5.408,0,0,0,0-10.815H203.647a5.408,5.408,0,0,0,0,10.815Zm0-7.363H240a1.956,1.956,0,1,1,0,3.912H203.647a1.956,1.956,0,0,1,0-3.912Z" transform="translate(-109.509 -137.182)" fill="#052643"/>
    <path id="Caminho_60" data-name="Caminho 60" d="M203.647,288.211H240a5.408,5.408,0,0,0,0-10.815H203.647a5.408,5.408,0,0,0,0,10.815Zm0-7.363H240a1.956,1.956,0,1,1,0,3.912H203.647a1.956,1.956,0,1,1,0-3.912Z" transform="translate(-109.509 -213.565)" fill="#052643"/>
    <path id="Caminho_61" data-name="Caminho 61" d="M203.647,387.423H240a5.408,5.408,0,1,0,0-10.815H203.647a5.408,5.408,0,1,0,0,10.815Zm0-7.363H240a1.956,1.956,0,1,1,0,3.912H203.647a1.956,1.956,0,1,1,0-3.912Z" transform="translate(-109.509 -289.947)" fill="#052643"/>
  </g>
</svg>
