<svg xmlns="http://www.w3.org/2000/svg" width="130.934" height="120.632" viewBox="0 0 130.934 120.632">
  <g id="warning_novo" data-name="warning novo" transform="translate(0.002 -0.008)">
    <path id="Caminho_113" data-name="Caminho 113" d="M252.507,316.516a23.159,23.159,0,0,1,8.733-7.175,21.572,21.572,0,0,1,13.1-1.87,21.974,21.974,0,0,1,9.529,4.425,23.165,23.165,0,0,1,5.423,6.371c3.428,5.748,12.341,20.942,24.052,41.552l13.7,23.733a23.669,23.669,0,0,1,2.548,4.778,22.056,22.056,0,0,1,1.593,6.925,21.794,21.794,0,0,1-3.026,11.946,22.319,22.319,0,0,1-5.492,6.233,18.7,18.7,0,0,1-9.564,4.224,16.137,16.137,0,0,1-2.549.076h-77.1a26.766,26.766,0,0,1-2.708,0,24.655,24.655,0,0,1-6.531-1.212,18.7,18.7,0,0,1-4.778-2.313,19.689,19.689,0,0,1-3.663-3.345,19.1,19.1,0,0,1-3.186-4.217,18.877,18.877,0,0,1-1.835-5.658,26.007,26.007,0,0,1-.478-4.065,23.711,23.711,0,0,1,1.039-7.618l19.827-35.838Z" transform="translate(-205.27 -302.13)" fill="none" stroke="#052643" stroke-miterlimit="10" stroke-width="10"/>
    <path id="Caminho_114" data-name="Caminho 114" d="M292.039,390.9a3.885,3.885,0,0,0,1.856,2.3,3.179,3.179,0,0,0,2.916.173,3.012,3.012,0,0,0,1.5-2.826c-.3-7.618.97-28.29,1.094-29.252a8.623,8.623,0,0,0,.069-1.032,9.335,9.335,0,0,0-.409-2.645,6.628,6.628,0,0,0-.838-2.2,4.342,4.342,0,0,0-2.216-1.482,4.571,4.571,0,0,0-3.082.173,4.522,4.522,0,0,0-1.995,1.717c-.152.242-.6,1.011-.693,3.463a21.658,21.658,0,0,0,.235,3.892Q291.264,377.039,292.039,390.9Z" transform="translate(-229.858 -316.454)" fill="#052643" stroke="#052643" stroke-miterlimit="10" stroke-width="7"/>
    <circle id="Elipse_17" data-name="Elipse 17" cx="4.605" cy="4.605" r="4.605" transform="translate(60.859 87.688)" fill="#052643" stroke="#052643" stroke-miterlimit="10" stroke-width="7"/>
  </g>
</svg>
