<svg xmlns="http://www.w3.org/2000/svg" width="168.308" height="117.815" viewBox="0 0 168.308 117.815">
  <g id="Grupo_120" data-name="Grupo 120" transform="translate(-103.346 -281.796)">
    <path id="users-solid" d="M45.522,95.8a16.781,16.781,0,0,0-11.86-4.891H16.831A16.846,16.846,0,0,0,0,107.738v8.415a8.406,8.406,0,0,0,8.415,8.415h17.33A38.564,38.564,0,0,1,45.522,95.8Z" transform="translate(103.346 250.796)" fill="#052643"/>
    <path id="users-solid-2" data-name="users-solid" d="M25.246,82.492A16.831,16.831,0,1,0,8.415,65.662,16.846,16.846,0,0,0,25.246,82.492Zm117.815,0a16.831,16.831,0,1,0-16.831-16.831A16.846,16.846,0,0,0,143.062,82.492Zm8.415,8.415H134.646a16.781,16.781,0,0,0-11.86,4.891,38.467,38.467,0,0,1,19.75,28.77h17.357a8.406,8.406,0,0,0,8.415-8.415v-8.415A16.846,16.846,0,0,0,151.477,90.908ZM45.522,95.8a16.781,16.781,0,0,0-11.86-4.891H16.831A16.846,16.846,0,0,0,0,107.738v8.415a8.406,8.406,0,0,0,8.415,8.415h17.33A38.564,38.564,0,0,1,45.522,95.8Z" transform="translate(103.346 250.796)" fill="#052643"/>
    <path id="user-regular" d="M72.162,69.953c-6.6,0-9.78,3.682-20.618,3.682s-13.991-3.682-20.618-3.682A30.935,30.935,0,0,0,0,100.879v5.891a11.048,11.048,0,0,0,11.045,11.045h81a11.048,11.048,0,0,0,11.045-11.045v-5.891A30.935,30.935,0,0,0,72.162,69.953ZM92.043,106.77h-81v-5.891A19.916,19.916,0,0,1,30.927,81c3.36,0,8.813,3.682,20.618,3.682C63.441,84.68,68.779,81,72.162,81a19.916,19.916,0,0,1,19.881,19.881Zm-40.5-40.5A33.136,33.136,0,1,0,18.409,33.136,33.144,33.144,0,0,0,51.544,66.271Zm0-55.226a22.09,22.09,0,1,1-22.09,22.09A22.126,22.126,0,0,1,51.544,11.045Z" transform="translate(135.956 281.796)" fill="#052643"/>
    <path id="Caminho_110" data-name="Caminho 110" d="M1460.57,7573.668" transform="translate(-1231 -7256)" fill="none" stroke="#707070" stroke-width="1"/>
  </g>
</svg>
