<svg xmlns="http://www.w3.org/2000/svg" width="98.801" height="117.816" viewBox="0 0 98.801 117.816">
  <g id="ic_favorites_empty" transform="translate(-48 -8)">
    <path id="Caminho_74" data-name="Caminho 74" d="M95.2,456H81.9a1.9,1.9,0,1,0,0,3.8H95.2a1.9,1.9,0,1,0,0-3.8Z" transform="translate(-24.399 -341.586)" fill="#052643"/>
    <path id="Caminho_75" data-name="Caminho 75" d="M163.8,456h-1.9a1.9,1.9,0,1,0,0,3.8h1.9a1.9,1.9,0,1,0,0-3.8Z" transform="translate(-85.396 -341.586)" fill="#052643"/>
    <path id="Caminho_76" data-name="Caminho 76" d="M120.207,21.366c0-.021,0-.043,0-.064V15.6a7.608,7.608,0,0,0-7.6-7.6H55.6A7.608,7.608,0,0,0,48,15.6V118.215a7.61,7.61,0,0,0,7.6,7.6h57.008a7.61,7.61,0,0,0,7.6-7.6V78.245a28.5,28.5,0,0,0,0-56.879ZM96.872,11.8l-.95,3.8H72.242l-1.069-3.8Zm19.537,106.414a3.805,3.805,0,0,1-3.8,3.8H55.6a3.805,3.805,0,0,1-3.8-3.8V15.6a3.805,3.805,0,0,1,3.8-3.8H67.226l1.748,6.216A1.9,1.9,0,0,0,70.8,19.4h26.6a1.9,1.9,0,0,0,1.843-1.439l1.542-6.162h11.817a3.805,3.805,0,0,1,3.8,3.8v5.7c0,.021,0,.043,0,.064A28.511,28.511,0,0,0,92.993,62.913l-1.333,4H59.4a5.708,5.708,0,0,0-5.7,5.7v11.4a5.708,5.708,0,0,0,5.7,5.7h49.407a5.708,5.708,0,0,0,5.7-5.7V78.053q.944.125,1.9.19ZM88.549,79.566a1.907,1.907,0,0,0,1.344.556,1.873,1.873,0,0,0,.6-.1l14.706-4.9a28.33,28.33,0,0,0,5.508,2.157V84.01a1.9,1.9,0,0,1-1.9,1.9H59.4a1.9,1.9,0,0,1-1.9-1.9v-11.4a1.9,1.9,0,0,1,1.9-1.9H90.395l-2.3,6.912a1.9,1.9,0,0,0,.458,1.945Zm29.76-5.057A24.714,24.714,0,0,1,106.3,71.4a1.908,1.908,0,0,0-1.523-.14L92.9,75.217l1.945-5.839a.009.009,0,0,0,0-.007l2.012-6.033a1.908,1.908,0,0,0-.143-1.527,24.706,24.706,0,1,1,21.594,12.7Z" fill="#052643"/>
    <path id="Caminho_77" data-name="Caminho 77" d="M120.7,280H97.9a1.9,1.9,0,1,0,0,3.8h22.8a1.9,1.9,0,1,0,0-3.8Z" transform="translate(-36.598 -207.391)" fill="#052643"/>
    <path id="Caminho_78" data-name="Caminho 78" d="M105.5,304H97.9a1.9,1.9,0,1,0,0,3.8h7.6a1.9,1.9,0,1,0,0-3.8Z" transform="translate(-36.598 -225.691)" fill="#052643"/>
    <path id="Caminho_79" data-name="Caminho 79" d="M155.8,304h-1.9a1.9,1.9,0,1,0,0,3.8h1.9a1.9,1.9,0,1,0,0-3.8Z" transform="translate(-79.297 -225.691)" fill="#052643"/>
    <path id="Icon_feather-heart" data-name="Icon feather-heart" d="M27.1,6.568a7.065,7.065,0,0,0-9.993,0L15.747,7.929,14.386,6.568a7.066,7.066,0,1,0-9.993,9.993l1.362,1.362,9.993,9.993,9.993-9.993L27.1,16.561a7.065,7.065,0,0,0,0-9.993Z" transform="translate(103 34.93)" fill="none" stroke="#052643" stroke-linecap="round" stroke-linejoin="round" stroke-width="3"/>
  </g>
</svg>
