<svg xmlns="http://www.w3.org/2000/svg" width="93.415" height="117.816" viewBox="0 0 93.415 117.816">
  <g id="Grupo_118" data-name="Grupo 118" transform="translate(-140.793 -247.796)">
    <g id="Grupo_117" data-name="Grupo 117">
      <g id="Grupo_40" data-name="Grupo 40" transform="translate(140.793 247.796)">
        <g id="Grupo_39" data-name="Grupo 39">
          <path id="Caminho_37" data-name="Caminho 37" d="M146.379,97.156l-5.261-66.3a8.286,8.286,0,0,0-8.224-7.617H122.5v-.467a22.774,22.774,0,1,0-45.547,0v.467H66.562a8.283,8.283,0,0,0-8.223,7.608L53.076,97.165A19.184,19.184,0,0,0,72.2,117.816h55.049a19.184,19.184,0,0,0,19.127-20.66ZM83.855,22.774a15.873,15.873,0,0,1,31.745,0v.467H83.855Zm52.408,84.205a12.156,12.156,0,0,1-9.011,3.936H72.2A12.282,12.282,0,0,1,59.956,97.7l5.263-66.316a1.353,1.353,0,0,1,1.343-1.244H76.954v8.5a3.45,3.45,0,1,0,6.9,0v-8.5H115.6v8.5a3.45,3.45,0,0,0,6.9,0v-8.5h10.392a1.355,1.355,0,0,1,1.344,1.253l5.261,66.3A12.157,12.157,0,0,1,136.263,106.979Z" transform="translate(-53.02 0)" fill="#052643"/>
        </g>
      </g>
      <path id="Caminho_38" data-name="Caminho 38" d="M189.488,209.281a19.9,19.9,0,0,0-19.88,19.88c0,10.546,9.511,18.912,14.62,23.407.66.58,1.23,1.081,1.668,1.491a5.275,5.275,0,0,0,7.183,0c.439-.41,1.009-.911,1.668-1.492,5.11-4.5,14.62-12.861,14.62-23.407A19.9,19.9,0,0,0,189.488,209.281Zm.7,38.105-.7.618-.7-.618c-4.291-3.774-12.277-10.8-12.277-18.225a12.979,12.979,0,0,1,25.958,0C202.467,236.586,194.48,243.612,190.19,247.386Z" transform="translate(-1.987 86.673)" fill="#052643"/>
    </g>
    <g id="Grupo_44" data-name="Grupo 44" transform="translate(179.064 307.081)">
      <g id="Grupo_43" data-name="Grupo 43" transform="translate(0)">
        <path id="Caminho_39" data-name="Caminho 39" d="M227.777,257.637a8.436,8.436,0,1,0,8.436,8.436A8.446,8.446,0,0,0,227.777,257.637Zm0,9.971a1.535,1.535,0,1,1,1.535-1.535A1.537,1.537,0,0,1,227.777,267.608Z" transform="translate(-219.341 -257.637)" fill="#052643"/>
      </g>
    </g>
  </g>
</svg>
