<svg xmlns="http://www.w3.org/2000/svg" width="121.333" height="117.815" viewBox="0 0 121.333 117.815">
  <g id="posts" transform="translate(-0.003 0.002)">
    <path id="Caminho_117" data-name="Caminho 117" d="M23.966,8.433H98.834a2.478,2.478,0,0,1,2.439,2.508v4.365l18.268,4.9a2.482,2.482,0,0,1,1.708,3.061L101.273,97.8V115.3a2.472,2.472,0,0,1-2.439,2.508H23.966a2.472,2.472,0,0,1-2.439-2.508V103.278L.089,23.255A2.486,2.486,0,0,1,1.8,20.193l19.729-5.283v-3.96a2.487,2.487,0,0,1,2.439-2.518Zm77.308,11.316V81.781l15.513-57.875h0l-15.513-4.157ZM21.527,87.261V19.354L4.552,23.906h0L21.527,87.261ZM47.23.079l19.789,5.3H50.429l-2.676-.721-.2.721H43.27l.938-3.5A2.5,2.5,0,0,1,47.23.079ZM76.735,60.916l-8.324-7.989L66.653,63.72a1.934,1.934,0,0,1-.2.612,1.7,1.7,0,0,1-.415.513,1.794,1.794,0,0,1-2.528-.2L50.795,49.58,37.444,61.647v4H85.375v-13.9l-7.91,9.1a.452.452,0,0,1-.385.207.477.477,0,0,1-.346-.138Zm.306-4.7,8.324-9.983v-13.4H37.444V56.788C41.493,53.125,45.66,49.1,49.8,45.62a1.736,1.736,0,0,1,1.254-.425,1.766,1.766,0,0,1,1.224.573l.01.02a.43.43,0,0,1,.059.069L63.72,59.316l1.689-10.378A1.814,1.814,0,0,1,66.13,47.8a1.783,1.783,0,0,1,1.313-.316l.049.01a1.985,1.985,0,0,1,.484.158,1.787,1.787,0,0,1,.454.316l8.611,8.245ZM68.48,33.4a5.315,5.315,0,0,1,2.014.4,5.241,5.241,0,0,1,1.718,1.145,5.427,5.427,0,0,1,1.155,1.718,5.308,5.308,0,0,1,.395,2.014,5.5,5.5,0,0,1-.395,2.014A5.265,5.265,0,0,1,70.5,43.557a5.1,5.1,0,0,1-2.014.4,5.32,5.32,0,0,1-3.733-1.55A5.427,5.427,0,0,1,63.6,40.693a5.27,5.27,0,0,1-.395-2.014,5.5,5.5,0,0,1,.395-2.014A5.265,5.265,0,0,1,66.466,33.8a5.1,5.1,0,0,1,2.014-.4Zm1.59,3.7a2.329,2.329,0,0,0-.731-.494,2.221,2.221,0,0,0-.859-.168,2.258,2.258,0,0,0-.859.168,2.48,2.48,0,0,0-.731.484,2.147,2.147,0,0,0-.484.731,2.258,2.258,0,0,0-.168.859,2.3,2.3,0,0,0,.168.859,2.48,2.48,0,0,0,.484.731,2.329,2.329,0,0,0,.731.494,2.221,2.221,0,0,0,.859.168,2.3,2.3,0,0,0,.859-.168,2.48,2.48,0,0,0,.731-.484,2.329,2.329,0,0,0,.494-.731,2.258,2.258,0,0,0,.168-.859,2.3,2.3,0,0,0-.168-.859,2.329,2.329,0,0,0-.494-.731Zm-34.363-7.84H87.113a1.716,1.716,0,0,1,1.234.533,1.777,1.777,0,0,1,.5,1.254V67.433a1.8,1.8,0,0,1-.5,1.254,1.716,1.716,0,0,1-1.234.533H35.706a1.677,1.677,0,0,1-1.224-.533,1.777,1.777,0,0,1-.5-1.254V31.046a1.8,1.8,0,0,1,.5-1.254,1.677,1.677,0,0,1,1.224-.533ZM41.019,75.1H71.353a1.04,1.04,0,0,1,.721.3l.03.039a1.047,1.047,0,0,1,.267.681v1.975a1.059,1.059,0,0,1-.3.721,1,1,0,0,1-.721.3H41.019a1.04,1.04,0,0,1-.721-.3l-.03-.039A1.047,1.047,0,0,1,40,78.088V76.113a1.04,1.04,0,0,1,.3-.721,1.078,1.078,0,0,1,.721-.3Zm-6.547,0H36.99a1.078,1.078,0,0,1,.721.3,1.059,1.059,0,0,1,.3.721v1.975a1.059,1.059,0,0,1-.3.721,1,1,0,0,1-.721.3H34.472a1.059,1.059,0,0,1-.721-.3.982.982,0,0,1-.3-.721V76.113a1.04,1.04,0,0,1,.3-.721,1,1,0,0,1,.721-.3Zm.434,16.866h53a1.377,1.377,0,0,1,1.047.494,1.68,1.68,0,0,1,.4,1.1v.395a1.611,1.611,0,0,1-.4,1.1l-.03.03a1.361,1.361,0,0,1-1.017.454h-53a1.377,1.377,0,0,1-1.047-.494,1.68,1.68,0,0,1-.4-1.1v-.395a1.66,1.66,0,0,1,.4-1.1l.03-.03a1.4,1.4,0,0,1,1.017-.454Zm0-8.492h53a1.377,1.377,0,0,1,1.047.494,1.68,1.68,0,0,1,.4,1.1v.395a1.611,1.611,0,0,1-.4,1.1l-.03.03a1.361,1.361,0,0,1-1.017.454h-53a1.377,1.377,0,0,1-1.047-.494,1.68,1.68,0,0,1-.4-1.1v-.395a1.66,1.66,0,0,1,.4-1.1l.03-.03a1.4,1.4,0,0,1,1.017-.454ZM97.136,12.728H25.674v100.8H97.136V12.728Z" fill="#052643"/>
  </g>
</svg>
