<svg xmlns="http://www.w3.org/2000/svg" width="117.811" height="117.816" viewBox="0 0 117.811 117.816">
  <g id="dairy-products" transform="translate(-0.012 0)">
    <path id="Caminho_94" data-name="Caminho 94" d="M117.07,100.328,105.583,77.473a1.726,1.726,0,0,0-2.7-.5,4.43,4.43,0,1,1-3.831-7.632,1.726,1.726,0,0,0,1.209-2.468l-2.893-5.758A8.084,8.084,0,0,0,90.1,56.639h0a8.228,8.228,0,0,0-.885.052c-.076-4.263-.185-8.532-.331-12.72a24.45,24.45,0,0,0-3.6-11.953,1.726,1.726,0,1,0-2.939,1.809,20.992,20.992,0,0,1,3.088,10.263c.158,4.536.274,9.167.349,13.783a8.111,8.111,0,0,0-2.942,3.238L74.4,77.913c-3.269-5.08-7.845-9.021-13.185-9.021-9.313,0-16.307,11.987-18.083,21.1h-.112A35.308,35.308,0,0,0,36.565,75.71q-.035-4.933,0-9.9c1.783.035,3.57.059,5.363.059,4.478,0,8.974-.11,13.435-.33a6.166,6.166,0,0,0,5.836-5.445,51.871,51.871,0,0,0,0-12.236,6.166,6.166,0,0,0-5.835-5.445c-6.036-.3-12.148-.391-18.2-.286a20.8,20.8,0,0,1,11.82-16.262H73.457a20.858,20.858,0,0,1,4.763,3.1,1.726,1.726,0,1,0,2.261-2.608A24.442,24.442,0,0,0,78.034,24.5a6.391,6.391,0,0,0-2.216-11.189v-6.1A7.215,7.215,0,0,0,68.612,0H53.825a7.214,7.214,0,0,0-7.206,7.206v6.1A6.391,6.391,0,0,0,44.4,24.5,24.388,24.388,0,0,0,33.549,43.971c-.324,9.343-.476,18.788-.455,28.137a12.869,12.869,0,0,0-8.155-3.216c-4.2,0-8.443,2.569-11.957,7.234A1.726,1.726,0,1,0,15.74,78.2c1.649-2.188,5.036-5.859,9.2-5.859,3.243,0,6.651,2.271,9.595,6.4A31.544,31.544,0,0,1,39.5,89.993H10.377a31.221,31.221,0,0,1,2.066-6.166A1.726,1.726,0,0,0,9.3,82.4a34.275,34.275,0,0,0-2.439,7.589H4.489a4.477,4.477,0,1,0,0,8.955h.848c.286,2.644.769,5.279,1.242,7.841.337,1.826.685,3.714.949,5.554a5.522,5.522,0,0,0,4.831,4.7,109.593,109.593,0,0,0,12.577.772,109.714,109.714,0,0,0,12.565-.769,5.515,5.515,0,0,0,2.268-.785,11.532,11.532,0,0,0,5.812,1.555H61.215a109.6,109.6,0,0,0,12.582-.771,5.49,5.49,0,0,0,3.119-1.441,40.453,40.453,0,0,0,38.233-6.512,7.143,7.143,0,0,0,1.92-8.762Zm-67-93.123a3.758,3.758,0,0,1,3.754-3.754H68.612a3.758,3.758,0,0,1,3.754,3.754V13.07H50.071Zm-1.726,9.317H74.091a2.944,2.944,0,0,1,0,5.889H48.345a2.944,2.944,0,1,1,0-5.889Zm6.844,29.336a2.723,2.723,0,0,1,2.577,2.405,48.42,48.42,0,0,1,0,11.421,2.724,2.724,0,0,1-2.578,2.405c-6.18.3-12.427.393-18.6.27.059-5.6.18-11.2.362-16.779C43.014,45.47,49.14,45.561,55.189,45.858Zm30.74,16.805A4.59,4.59,0,0,1,90.1,60.091h0a4.591,4.591,0,0,1,4.175,2.573L96.3,66.681a7.884,7.884,0,0,0,7.079,14.088l9.656,19.211-.03.026a36.842,36.842,0,0,1-33.364,6.46c.453-2.461.907-4.985,1.181-7.519h.849a4.477,4.477,0,0,0,0-8.955H79.3a35.274,35.274,0,0,0-2.864-8.442ZM51.622,78.74c2.944-4.125,6.352-6.4,9.6-6.4s6.652,2.271,9.6,6.4a31.54,31.54,0,0,1,4.966,11.253H46.656A31.541,31.541,0,0,1,51.622,78.74ZM3.464,94.47a1.027,1.027,0,0,1,1.026-1.026h77.18a1.026,1.026,0,0,1,0,2.051H4.489A1.027,1.027,0,0,1,3.464,94.47Zm38.566,19.084a5.5,5.5,0,0,0,.322-1.213c.161-1.131.353-2.48.553-3.918.014-.1.021-.151.174-.151s.161.054.174.15c.2,1.44.392,2.789.553,3.922a5.5,5.5,0,0,0,.673,1.946A8.066,8.066,0,0,1,42.029,113.555Zm31.377.06a99.766,99.766,0,0,1-24.361,0,2.077,2.077,0,0,1-1.823-1.762c-.161-1.128-.352-2.472-.552-3.91a3.628,3.628,0,0,0-7.185,0c-.2,1.436-.391,2.78-.551,3.907a2.077,2.077,0,0,1-1.823,1.764,99.766,99.766,0,0,1-24.361,0,2.068,2.068,0,0,1-1.806-1.764c-.274-1.907-.629-3.829-.972-5.687-.438-2.374-.885-4.812-1.163-7.215H77.346c-.279,2.409-.727,4.854-1.166,7.235-.341,1.853-.695,3.769-.969,5.669A2.067,2.067,0,0,1,73.407,113.614ZM113,106.389a37,37,0,0,1-34.407,6.135c.011-.06.025-.118.034-.179.118-.814.253-1.638.394-2.462a40.287,40.287,0,0,0,35.343-6.572A3.663,3.663,0,0,1,113,106.389Z" transform="translate(0)" fill="#052643"/>
    <path id="Caminho_95" data-name="Caminho 95" d="M393.982,393.1a7.634,7.634,0,0,0,4.933,3.2,7.775,7.775,0,0,0,1.416.131,7.687,7.687,0,1,0-6.349-3.333Zm2.17-5.125a4.236,4.236,0,0,1,4.154-3.464,4.285,4.285,0,0,1,.78.072,4.233,4.233,0,1,1-4.933,3.392Z" transform="translate(-302.27 -293.376)" fill="#052643"/>
    <path id="Caminho_96" data-name="Caminho 96" d="M351.681,351.224a5.666,5.666,0,0,0,1.032.1,5.61,5.61,0,1,0-1.032-.1Zm-1.1-5.9a2.151,2.151,0,1,1,1.724,2.507A2.153,2.153,0,0,1,350.586,345.324Z" transform="translate(-267.217 -261.848)" fill="#052643"/>
  </g>
</svg>
